<?xml version="1.0" standalone="no"?><!DOCTYPE svg PUBLIC "-//W3C//DTD SVG 1.1//EN" "http://www.w3.org/Graphics/SVG/1.1/DTD/svg11.dtd"><svg t="1572398522337" class="icon" viewBox="0 0 1024 1024" version="1.1" xmlns="http://www.w3.org/2000/svg" p-id="2676" xmlns:xlink="http://www.w3.org/1999/xlink" width="64" height="64"><defs><style type="text/css"></style></defs><path d="M504.135425 516.580627c-5.371229 0-8.950832-1.774598-12.532868-3.551628L74.567248 276.845745c-12.526786-7.104472-17.895583-23.084365-10.736376-35.518712 7.160422-12.425832 23.266812-17.755707 35.799679-10.657316L516.659778 468.634867c12.532868 7.099607 17.896799 23.084365 10.742458 35.518711-3.582036 8.875421-12.531651 12.427049-23.266811 12.427049" fill="#ffffff" p-id="2677"></path><path d="M505.918537 516.580627c-8.945967 0-17.895583-5.328658-23.266812-14.204079-7.155557-12.431914-1.79041-28.413023 10.740025-35.517495l431.353721-239.738531c12.52557-7.103256 28.635608-1.775814 35.798463 10.652451 7.160422 12.431914 1.79041 28.413023-10.740025 35.517495l-431.352505 239.738531c-3.580819 3.551628-8.952048 3.551628-12.532867 3.551628" fill="#ffffff" p-id="2678"></path><path d="M935.485497 276.845745c-3.585685 0-8.950832-1.77703-12.532868-3.552845L495.184593 60.194011C482.651725 53.089539 477.287794 37.109646 482.651725 24.676516c7.160422-12.429481 23.266812-17.755707 35.799679-12.429481L946.221873 225.345924c12.532868 7.104472 17.90288 23.084365 12.532868 35.518712-3.582036 10.651235-12.532868 15.981109-23.269244 15.981109" fill="#ffffff" p-id="2679"></path><path d="M94.259322 275.068714c-8.950832 0-19.692074-5.328658-23.266811-14.204078-7.160422-12.43313-1.79041-28.414239 12.526786-35.518712L495.184593 14.024065c12.52557-7.103256 28.638041-1.774598 35.798463 12.429481 7.155557 14.21016 1.784328 28.414239-12.531652 35.518712L106.786108 271.51587c-3.580819 1.77703-7.155557 3.552844-12.526786 3.552844m413.450841 737.358088c-5.365147 0-8.945967-1.774598-14.31598-3.552845L79.937261 758.481759c-12.52557-7.104472-16.106389-24.861395-8.945967-37.288444 7.155557-12.43313 25.056005-15.984758 37.582791-8.880286l413.45449 250.38855c12.526786 7.104472 16.106389 24.86626 8.950832 37.293309-5.368796 8.87907-14.319628 12.431914-23.269244 12.431914M959.676705 742.265902c-2.508033 4.809293-5.771395 7.20421-9.867931 11.197358L532.544799 1008.865443c-12.214194 7.963188-29.771642 3.012802-37.545085-9.111385-7.773443-12.129052-2.587093-29.797185 9.6271-37.761589l417.267624-255.402183c12.204464-7.957106 29.767993-3.007937 37.541437 9.117467 5.433261 8.891233 4.429804 18.541444 0.24083 26.558149" fill="#ffffff" p-id="2680"></path><path d="M514.870585 1013.809747c-14.31598 0-26.847631-12.428265-26.847631-26.635993V495.272076c0-14.208944 12.531651-26.635993 26.847631-26.635993 14.322061 0 26.848847 12.429481 26.848847 26.635993v491.906544c0 14.205295-12.526786 26.631128-26.848847 26.631127M87.0989 758.093756c-14.314763 0-26.847631-12.43313-26.847631-26.637209V267.965459c0-14.204079 12.532868-26.637209 26.847631-26.637209 14.31598 0 26.848847 12.43313 26.848847 26.637209v463.491088c-0.001216 14.204079-12.532868 26.637209-26.848847 26.637209" fill="#ffffff" p-id="2681"></path><path d="M436.588814 709.620117L148.740321 538.931556c-8.444847-5.71058-12.248251-18.821195-8.853527-29.131862 4.589141-10.327696 15.234294-14.90589 23.653598-10.660966l287.848493 170.688561c8.444847 5.71058 12.250684 18.821195 8.853528 29.133079-2.230714 8.821903-8.112794 13.318605-15.259837 13.442668-2.387618 0.041355-5.985466-1.359836-8.393762-2.782919z" fill="#ffffff" p-id="2682"></path><path d="M936.807627 754.396171c-14.31598 0-26.848847-12.429481-26.848848-26.635993V264.265441c0-14.204079 12.532868-26.637209 26.848848-26.637209 14.319628 0 26.847631 12.43313 26.847631 26.637209v463.492304c-0.001216 14.208944-12.528002 26.638425-26.847631 26.638426" fill="#ffffff" p-id="2683"></path></svg>